<svg width="19" height="16" viewBox="0 0 19 16" fill="none" xmlns="http://www.w3.org/2000/svg">
<path fill-rule="evenodd" clip-rule="evenodd" d="M2.5 2H16.5C16.7761 2 17 2.22386 17 2.5V9.5C17 9.77614 16.7761 10 16.5 10H2.5C2.22386 10 2 9.77614 2 9.5V2.5C2 2.22386 2.22386 2 2.5 2ZM0 2.5C0 1.11929 1.11929 0 2.5 0H16.5C17.8807 0 19 1.11929 19 2.5V9.5C19 10.8807 17.8807 12 16.5 12H2.5C1.11929 12 0 10.8807 0 9.5V2.5ZM7 14C6.44772 14 6 14.4477 6 15C6 15.5523 6.44772 16 7 16H12C12.5523 16 13 15.5523 13 15C13 14.4477 12.5523 14 12 14H7Z" fill="white"/>
</svg>
