<svg width="30" height="30" viewBox="0 0 30 30" fill="none" xmlns="http://www.w3.org/2000/svg">
<path fill-rule="evenodd" clip-rule="evenodd" d="M13 20.5C8.85786 20.5 5.5 17.1421 5.5 13C5.5 8.85786 8.85786 5.5 13 5.5C17.1421 5.5 20.5 8.85786 20.5 13C20.5 17.1421 17.1421 20.5 13 20.5ZM4 13C4 8.02944 8.02944 4 13 4C17.9706 4 22 8.02944 22 13C22 15.2153 21.1996 17.2436 19.8723 18.8116L24.5303 23.4697C24.8232 23.7626 24.8232 24.2374 24.5303 24.5303C24.2374 24.8232 23.7626 24.8232 23.4697 24.5303L18.8116 19.8723C17.2436 21.1996 15.2153 22 13 22C8.02944 22 4 17.9706 4 13Z" fill="#202028"/>
</svg>
