<svg width="12" height="17" viewBox="0 0 12 17" fill="none" xmlns="http://www.w3.org/2000/svg">
<path fill-rule="evenodd" clip-rule="evenodd" d="M10 14.5L10 2.5C10 2.22386 9.77614 2 9.5 2L2.5 2C2.22386 2 2 2.22386 2 2.5L2 14.5C2 14.7761 2.22386 15 2.5 15L9.5 15C9.77614 15 10 14.7761 10 14.5ZM12 2.5C12 1.11929 10.8807 -4.89256e-08 9.5 -1.09278e-07L2.5 -4.15258e-07C1.11929 -4.75611e-07 9.04749e-07 1.11929 8.44396e-07 2.5L3.19859e-07 14.5C2.59506e-07 15.8807 1.11929 17 2.5 17L9.5 17C10.8807 17 12 15.8807 12 14.5L12 2.5Z" fill="white"/>
</svg>
