<svg width="18" height="13" viewBox="0 0 18 13" fill="none" xmlns="http://www.w3.org/2000/svg">
<path fill-rule="evenodd" clip-rule="evenodd" d="M3 10.5L15 10.5C15.2761 10.5 15.5 10.2761 15.5 10L15.5 3C15.5 2.72386 15.2761 2.5 15 2.5L3 2.5C2.72386 2.5 2.5 2.72386 2.5 3L2.5 10C2.5 10.2761 2.72386 10.5 3 10.5ZM15 12.5C16.3807 12.5 17.5 11.3807 17.5 10L17.5 3C17.5 1.61929 16.3807 0.500001 15 0.500001L3 0.5C1.61929 0.5 0.500001 1.61929 0.500001 3L0.5 10C0.5 11.3807 1.61929 12.5 3 12.5L15 12.5Z" fill="white"/>
</svg>
