<svg width="30" height="30" viewBox="0 0 30 30" fill="none" xmlns="http://www.w3.org/2000/svg">
<path fill-rule="evenodd" clip-rule="evenodd" d="M12.25 7C12.25 6.58579 11.9142 6.25 11.5 6.25C11.0858 6.25 10.75 6.58579 10.75 7V7.7582C8.79549 7.88685 7.25 9.51294 7.25 11.5V18.5C7.25 20.5711 8.92893 22.25 11 22.25H19C21.0711 22.25 22.75 20.5711 22.75 18.5V11.5C22.75 9.51294 21.2045 7.88685 19.25 7.7582V7C19.25 6.58579 18.9142 6.25 18.5 6.25C18.0858 6.25 17.75 6.58579 17.75 7V7.75H12.25V7ZM17.75 9.25H12.25V10C12.25 10.4142 11.9142 10.75 11.5 10.75C11.0858 10.75 10.75 10.4142 10.75 10V9.26373C9.62501 9.38809 8.75 10.3419 8.75 11.5V18.5C8.75 19.7426 9.75736 20.75 11 20.75H19C20.2426 20.75 21.25 19.7426 21.25 18.5V11.5C21.25 10.3419 20.375 9.38809 19.25 9.26373V10C19.25 10.4142 18.9142 10.75 18.5 10.75C18.0858 10.75 17.75 10.4142 17.75 10V9.25ZM10.75 13.5C10.75 13.0858 11.0858 12.75 11.5 12.75H18.5C18.9142 12.75 19.25 13.0858 19.25 13.5C19.25 13.9142 18.9142 14.25 18.5 14.25H11.5C11.0858 14.25 10.75 13.9142 10.75 13.5Z" fill="#606979"/>
</svg>
