<svg width="39" height="12" viewBox="0 0 39 12" fill="none" xmlns="http://www.w3.org/2000/svg">
<path d="M4.50137 11.597C1.98916 11.597 0.480371 9.46564 0.480371 6.05255V6.0379C0.480371 2.62482 1.98916 0.500793 4.50137 0.500793C7.01357 0.500793 8.53701 2.62482 8.53701 6.0379V6.05255C8.53701 9.46564 7.01357 11.597 4.50137 11.597ZM4.50137 10.0662C5.84902 10.0662 6.63272 8.55743 6.63272 6.05255V6.0379C6.63272 3.53302 5.84902 2.03888 4.50137 2.03888C3.15371 2.03888 2.38467 3.53302 2.38467 6.0379V6.05255C2.38467 8.55743 3.15371 10.0662 4.50137 10.0662ZM14.0524 0.500793C16.3083 0.500793 18.2712 2.1048 18.2712 5.91339V5.92804C18.2712 9.48761 16.6672 11.597 14.0085 11.597C12.0676 11.597 10.6174 10.4471 10.2805 8.82843L10.2658 8.74786H12.1262L12.1481 8.82111C12.4265 9.56085 13.0783 10.0443 14.0085 10.0443C15.6857 10.0443 16.3962 8.40363 16.4768 6.38214C16.4768 6.30157 16.4841 6.22101 16.4841 6.14044H16.3376C15.9494 6.9754 15.0266 7.71515 13.5764 7.71515C11.5476 7.71515 10.1267 6.23566 10.1267 4.22882V4.21417C10.1267 2.06818 11.76 0.500793 14.0524 0.500793ZM14.0451 6.26495C15.239 6.26495 16.1545 5.4007 16.1545 4.20685V4.1922C16.1545 2.9837 15.239 2.03888 14.0671 2.03888C12.9025 2.03888 11.9724 2.96906 11.9724 4.14825V4.1629C11.9724 5.38605 12.8439 6.26495 14.0451 6.26495ZM21.2964 4.48517C20.6299 4.48517 20.1318 3.97247 20.1318 3.32794C20.1318 2.67609 20.6299 2.17072 21.2964 2.17072C21.9702 2.17072 22.4609 2.67609 22.4609 3.32794C22.4609 3.97247 21.9702 4.48517 21.2964 4.48517ZM21.2964 9.91974C20.6299 9.91974 20.1318 9.41437 20.1318 8.76251C20.1318 8.11066 20.6299 7.60529 21.2964 7.60529C21.9702 7.60529 22.4609 8.11066 22.4609 8.76251C22.4609 9.41437 21.9702 9.91974 21.2964 9.91974ZM29.4485 11.3333V9.3045H24.2776V7.75909C25.6473 5.37872 27.1487 2.94708 28.5843 0.764465H31.2576V7.74445H32.6785V9.3045H31.2576V11.3333H29.4485ZM26.0354 7.78839H29.4778V2.27325H29.368C28.284 3.92853 27.0608 5.88409 26.0354 7.67853V7.78839ZM36.7584 11.3333V2.62482H36.6339L34.0045 4.48517V2.70538L36.7657 0.764465H38.648V11.3333H36.7584Z" fill="black"/>
</svg>
