<svg width="78" height="13" viewBox="0 0 78 13" fill="none" xmlns="http://www.w3.org/2000/svg">
<path opacity="0.35" d="M51 4C51 2.067 52.567 0.5 54.5 0.5H71.5C73.433 0.5 75 2.067 75 4V9C75 10.933 73.433 12.5 71.5 12.5H54.5C52.567 12.5 51 10.933 51 9V4Z" stroke="black"/>
<path opacity="0.4" d="M76.5 5V9.22034C77.3491 8.86291 77.9012 8.0314 77.9012 7.11017C77.9012 6.18894 77.3491 5.35744 76.5 5Z" fill="black"/>
<path d="M52.5 4C52.5 2.89543 53.3954 2 54.5 2H71.5C72.6046 2 73.5 2.89543 73.5 4V9C73.5 10.1046 72.6046 11 71.5 11H54.5C53.3954 11 52.5 10.1046 52.5 9V4Z" fill="black"/>
<path fill-rule="evenodd" clip-rule="evenodd" d="M35.0005 3.58753C37.467 3.58764 39.8393 4.55505 41.6269 6.28982C41.7615 6.42375 41.9766 6.42206 42.1092 6.28603L43.396 4.96045C43.4631 4.89146 43.5006 4.798 43.5 4.70076C43.4994 4.60353 43.4609 4.51052 43.393 4.44234C38.7011 -0.147446 31.2991 -0.147446 26.6072 4.44234C26.5392 4.51047 26.5006 4.60345 26.5 4.70069C26.4994 4.79792 26.5367 4.89141 26.6038 4.96045L27.891 6.28603C28.0235 6.42226 28.2388 6.42396 28.3733 6.28982C30.1612 4.55494 32.5337 3.58752 35.0005 3.58753ZM35.0359 7.58937C36.3911 7.58929 37.698 8.10346 38.7025 9.03199C38.8384 9.16376 39.0524 9.16091 39.1849 9.02555L40.4702 7.69997C40.5379 7.63044 40.5754 7.53611 40.5744 7.4381C40.5735 7.34008 40.534 7.24656 40.465 7.17844C37.4059 4.27385 32.6685 4.27385 29.6094 7.17844C29.5403 7.24656 29.5009 7.34013 29.5 7.43817C29.4991 7.53622 29.5368 7.63054 29.6046 7.69997L30.8895 9.02555C31.022 9.16091 31.236 9.16376 31.3719 9.03199C32.3758 8.10408 33.6816 7.58995 35.0359 7.58937ZM37.6496 10.1767C37.6515 10.275 37.6137 10.3698 37.5449 10.4386L35.3217 12.7289C35.2565 12.7962 35.1676 12.834 35.0749 12.834C34.9822 12.834 34.8933 12.7962 34.8282 12.7289L32.6045 10.4386C32.5358 10.3697 32.498 10.2749 32.5001 10.1766C32.5021 10.0783 32.5438 9.98527 32.6153 9.91938C34.0351 8.69354 36.1147 8.69354 37.5345 9.91938C37.606 9.98532 37.6476 10.0784 37.6496 10.1767Z" fill="black"/>
<path d="M10.5 4C10.5 3.44772 10.9477 3 11.5 3H12.5C13.0523 3 13.5 3.44772 13.5 4V12C13.5 12.5523 13.0523 13 12.5 13H11.5C10.9477 13 10.5 12.5523 10.5 12V4Z" fill="black"/>
<path d="M15.5 2C15.5 1.44772 15.9477 1 16.5 1H17.5C18.0523 1 18.5 1.44772 18.5 2V12C18.5 12.5523 18.0523 13 17.5 13H16.5C15.9477 13 15.5 12.5523 15.5 12V2Z" fill="black"/>
<path d="M5.5 7.5C5.5 6.94772 5.94772 6.5 6.5 6.5H7.5C8.05228 6.5 8.5 6.94772 8.5 7.5V12C8.5 12.5523 8.05228 13 7.5 13H6.5C5.94772 13 5.5 12.5523 5.5 12V7.5Z" fill="black"/>
<path d="M0.5 10C0.5 9.44772 0.947715 9 1.5 9H2.5C3.05228 9 3.5 9.44772 3.5 10V12C3.5 12.5523 3.05228 13 2.5 13H1.5C0.947715 13 0.5 12.5523 0.5 12V10Z" fill="black"/>
</svg>
